<?xml version="1.0" encoding="UTF-8"?>
<svg version="1.1" xmlns="http://www.w3.org/2000/svg" width="512" height="512">
<path d="M0 0 C1.01790619 0.00215515 2.03581238 0.0043103 3.08456421 0.00653076 C17.69363523 0.05620146 32.02575853 0.30709809 46.375 3.3125 C47.34985352 3.51117676 48.32470703 3.70985352 49.32910156 3.91455078 C96.7390174 13.83185533 141.61271733 35.15303148 176.375 69.3125 C177.42518311 70.32618652 177.42518311 70.32618652 178.49658203 71.36035156 C188.27046226 80.79849578 197.37637692 90.32317068 205.375 101.3125 C206.23149066 102.46244831 207.08826433 103.61218589 207.9453125 104.76171875 C213.98534209 112.95184258 219.36867614 121.45629618 224.375 130.3125 C224.7771875 131.01971191 225.179375 131.72692383 225.59375 132.45556641 C240.34720851 158.66024447 249.87670334 187.59796386 254.375 217.3125 C254.55232666 218.43132568 254.72965332 219.55015137 254.91235352 220.70288086 C256.59376341 232.42485947 256.73234341 244.04748976 256.6875 255.875 C256.68534485 256.89540375 256.6831897 257.9158075 256.68096924 258.96713257 C256.63133352 273.59460524 256.38419712 287.94513838 253.375 302.3125 C253.07698486 303.77478027 253.07698486 303.77478027 252.77294922 305.26660156 C242.65232806 353.6484774 220.7358123 397.63678269 186.375 433.3125 C185.74287598 433.97185547 185.11075195 434.63121094 184.45947266 435.31054688 C175.31502521 444.79880305 166.01765991 453.5387044 155.375 461.3125 C154.22394983 462.17056152 153.07290823 463.02863451 151.921875 463.88671875 C143.73224019 469.92427396 135.22961724 475.30707302 126.375 480.3125 C125.66778809 480.7146875 124.96057617 481.116875 124.23193359 481.53125 C101.69703464 494.2185914 77.43201763 502.6719835 52.1875 508.0625 C51.26267822 508.26133789 50.33785645 508.46017578 49.38500977 508.66503906 C33.3005391 511.93208772 17.4346011 512.72080603 1.0625 512.6875 C-0.45177582 512.68668427 -0.45177582 512.68668427 -1.99664307 512.68585205 C-18.50623539 512.64508601 -34.42282001 511.73779309 -50.625 508.3125 C-51.66688477 508.09287598 -52.70876953 507.87325195 -53.78222656 507.64697266 C-88.74910553 500.0198964 -121.73342515 485.47362644 -150.625 464.3125 C-151.19798828 463.89645508 -151.77097656 463.48041016 -152.36132812 463.05175781 C-161.01533696 456.72921718 -168.91953388 449.75176229 -176.625 442.3125 C-177.30143555 441.6632959 -177.97787109 441.0140918 -178.67480469 440.34521484 C-188.1444147 431.21579191 -196.86512211 421.93610596 -204.625 411.3125 C-205.48306152 410.16144983 -206.34113451 409.01040823 -207.19921875 407.859375 C-213.23677396 399.66974019 -218.61957302 391.16711724 -223.625 382.3125 C-224.0271875 381.60528809 -224.429375 380.89807617 -224.84375 380.16943359 C-239.59720851 353.96475553 -249.12670334 325.02703614 -253.625 295.3125 C-253.80232666 294.19367432 -253.97965332 293.07484863 -254.16235352 291.92211914 C-255.84376341 280.20014053 -255.98234341 268.57751024 -255.9375 256.75 C-255.93426727 255.21939438 -255.93426727 255.21939438 -255.93096924 253.65786743 C-255.88133352 239.03039476 -255.63419712 224.67986162 -252.625 210.3125 C-252.42632324 209.33764648 -252.22764648 208.36279297 -252.02294922 207.35839844 C-241.90232806 158.9765226 -219.9858123 114.98821731 -185.625 79.3125 C-184.99287598 78.65314453 -184.36075195 77.99378906 -183.70947266 77.31445312 C-174.56502521 67.82619695 -165.26765991 59.0862956 -154.625 51.3125 C-153.47394983 50.45443848 -152.32290823 49.59636549 -151.171875 48.73828125 C-142.98224019 42.70072604 -134.47961724 37.31792698 -125.625 32.3125 C-124.91778809 31.9103125 -124.21057617 31.508125 -123.48193359 31.09375 C-100.34654164 18.0683259 -75.17537591 9.31948539 -49.1875 4 C-48.46860596 3.85264404 -47.74971191 3.70528809 -47.0090332 3.5534668 C-31.36274391 0.57960912 -15.88931954 -0.06050362 0 0 Z " fill="#C8102E" transform="translate(255.625,-0.3125)"/>
<path d="M0 0 C71.28 0 142.56 0 216 0 C212.48712315 21.07726109 212.48712315 21.07726109 209.8125 30.3125 C209.35967651 31.89369629 209.35967651 31.89369629 208.89770508 33.50683594 C198.64767339 68.45311163 181.6623248 100.3091432 158 128 C157.36320313 128.74894531 156.72640625 129.49789062 156.0703125 130.26953125 C144.25297532 143.76520621 131.51448412 156.43558025 117 167 C115.85005169 167.85649066 114.70031411 168.71326433 113.55078125 169.5703125 C105.36065742 175.61034209 96.85620382 180.99367614 88 186 C86.93918213 186.60328125 86.93918213 186.60328125 85.85693359 187.21875 C61.7873266 200.77014519 28.23576847 216 0 216 C0 144.72 0 73.44 0 0 Z " fill="#FDFCFD" transform="translate(294,294)"/>
<path d="M0 0 C21.07991244 3.51331874 21.07991244 3.51331874 30.3125 6.1875 C31.36808105 6.49010742 32.42366211 6.79271484 33.51123047 7.10449219 C72.49839991 18.54822496 108.92273535 38.42696537 138 67 C138.70012207 67.67579102 139.40024414 68.35158203 140.12158203 69.04785156 C149.89546226 78.48599578 159.00137692 88.01067068 167 99 C167.85649066 100.14994831 168.71326433 101.29968589 169.5703125 102.44921875 C175.61034209 110.63934258 180.99367614 119.14379618 186 128 C186.60328125 129.06081787 186.60328125 129.06081787 187.21875 130.14306641 C196.50711576 146.64080043 203.37527024 163.94087746 208.8125 182.0625 C209.07828857 182.93350342 209.34407715 183.80450684 209.61791992 184.7019043 C212.58383105 195.04483173 214.05093683 205.28015254 216 216 C144.72 216 73.44 216 0 216 C0 144.72 0 73.44 0 0 Z " fill="#FDFCFD" transform="translate(294,2)"/>
<path d="M0 0 C0 71.28 0 142.56 0 216 C-71.28 216 -142.56 216 -216 216 C-212.48712315 194.92273891 -212.48712315 194.92273891 -209.8125 185.6875 C-209.35967651 184.10630371 -209.35967651 184.10630371 -208.89770508 182.49316406 C-198.64767339 147.54688837 -181.6623248 115.6908568 -158 88 C-157.04480469 86.87658203 -157.04480469 86.87658203 -156.0703125 85.73046875 C-144.25297532 72.23479379 -131.51448412 59.56441975 -117 49 C-115.85005169 48.14350934 -114.70031411 47.28673567 -113.55078125 46.4296875 C-105.36065742 40.38965791 -96.85620382 35.00632386 -88 30 C-87.29278809 29.5978125 -86.58557617 29.195625 -85.85693359 28.78125 C-61.62751447 15.13987922 -28.38546516 0 0 0 Z " fill="#FDFCFC" transform="translate(218,2)"/>
<path d="M0 0 C71.28 0 142.56 0 216 0 C216 71.28 216 142.56 216 216 C190.22263391 211.31320617 190.22263391 211.31320617 182.1875 208.875 C181.20869873 208.58206055 180.22989746 208.28912109 179.22143555 207.98730469 C140.75327032 196.11709306 105.96669835 175.96597417 77 148 C75.98534668 147.02619385 75.98534668 147.02619385 74.95019531 146.03271484 C65.4805853 136.90329191 56.75987789 127.62360596 49 117 C48.14193848 115.84894983 47.28386549 114.69790823 46.42578125 113.546875 C40.38822604 105.35724019 35.00542698 96.85461724 30 88 C29.5978125 87.29278809 29.195625 86.58557617 28.78125 85.85693359 C19.49288424 69.35919957 12.62472976 52.05912254 7.1875 33.9375 C6.92171143 33.06649658 6.65592285 32.19549316 6.38208008 31.2980957 C3.41616895 20.95516827 1.94906317 10.71984746 0 0 Z " fill="#FDFCFD" transform="translate(2,294)"/>
<path d="M0 0 C5.62054208 3.37232525 5.62054208 3.37232525 8.1640625 5.6015625 C8.72295166 6.0869751 9.28184082 6.5723877 9.85766602 7.07250977 C10.44088623 7.58483154 11.02410645 8.09715332 11.625 8.625 C12.87544875 9.7106191 14.1267595 10.79524606 15.37890625 11.87890625 C15.9939502 12.4114502 16.60899414 12.94399414 17.24267578 13.49267578 C19.64957643 15.55716656 22.10096059 17.56362879 24.5625 19.5625 C28.58358509 22.82778643 32.55333581 26.14571109 36.5 29.5 C41.26905969 33.5501864 46.0791259 37.54352242 50.9296875 41.49609375 C60.50084514 49.30157982 70.0509146 57.13274948 79.4440918 65.15209961 C81.99064811 67.32150822 84.55635179 69.45866666 87.17578125 71.5390625 C88.16964844 72.33054687 89.16351563 73.12203125 90.1875 73.9375 C91.06792969 74.62714844 91.94835937 75.31679688 92.85546875 76.02734375 C94.97398604 77.97607095 95.81535372 79.43265409 97 82 C85.37522507 90.66562804 73.5844019 98.78692329 61 106 C60.25169922 106.42909668 59.50339844 106.85819336 58.73242188 107.30029297 C45.98270118 114.51366322 32.73937876 119.96734939 19 125 C18.31663574 125.25571777 17.63327148 125.51143555 16.92919922 125.77490234 C10.71809187 128.09127805 6.83196201 129 0 129 C0 86.43 0 43.86 0 0 Z " fill="#02226A" transform="translate(321,374)"/>
<path d="M0 0 C7.24183081 0.72418308 12.75334012 1.57015043 19.375 4 C20.22860107 4.30687744 21.08220215 4.61375488 21.96166992 4.92993164 C45.68764635 13.64936371 67.46702038 25.4711562 87.875 40.3125 C88.58390381 40.81620117 89.29280762 41.31990234 90.02319336 41.83886719 C90.99784546 42.56251465 90.99784546 42.56251465 91.9921875 43.30078125 C92.57339355 43.72528564 93.15459961 44.14979004 93.75341797 44.5871582 C95 46 95 46 95 50 C93.08426602 51.93375029 91.2455522 53.57142542 89.125 55.25 C88.53074219 55.73597656 87.93648438 56.22195312 87.32421875 56.72265625 C85.55929467 58.16116426 83.7821501 59.58291816 82 61 C81.13117188 61.69609375 80.26234375 62.3921875 79.3671875 63.109375 C77.77714026 64.37931372 76.18465102 65.64620041 74.58984375 66.91015625 C71.53918025 69.37185304 68.54855054 71.89813682 65.5625 74.4375 C60.77332742 78.50968486 55.94383037 82.52481607 51.0703125 86.49609375 C41.49738875 94.30302012 31.96063348 102.15087606 22.54931641 110.15209961 C17.42306239 114.50462539 12.22727929 118.76958968 7 123 C5.6696875 124.11568359 5.6696875 124.11568359 4.3125 125.25390625 C2 127 2 127 0 127 C0 85.09 0 43.18 0 0 Z " fill="#03226A" transform="translate(321,9)"/>
<path d="M0 0 C0 41.91 0 83.82 0 127 C-8.52785631 125.68802211 -15.52882981 124.535637 -23.375 121.5625 C-24.30344727 121.21614502 -25.23189453 120.86979004 -26.18847656 120.51293945 C-51.46105364 110.84403949 -75.31873516 97.52334716 -96 80 C-94.76145489 76.28436466 -93.30982822 75.40541409 -90.25 73 C-89.25613281 72.20722656 -88.26226562 71.41445313 -87.23828125 70.59765625 C-86.70928223 70.17629395 -86.1802832 69.75493164 -85.63525391 69.32080078 C-82.85875595 67.07821285 -80.15168399 64.75476069 -77.4375 62.4375 C-72.88789286 58.56674003 -68.27163715 54.80037369 -63.58984375 51.08984375 C-60.53918121 48.62814774 -57.54852806 46.10188875 -54.5625 43.5625 C-47.89308441 37.89067155 -41.12177567 32.35044923 -34.328125 26.828125 C-29.34400975 22.76592702 -24.40107461 18.66161677 -19.5 14.5 C-17.33477378 12.66495868 -15.16811529 10.83162695 -13 9 C-12.20070068 8.32445068 -12.20070068 8.32445068 -11.38525391 7.63525391 C-9.86567414 6.35543526 -8.33923162 5.08377848 -6.8125 3.8125 C-5.93207031 3.07644531 -5.05164063 2.34039062 -4.14453125 1.58203125 C-2 0 -2 0 0 0 Z " fill="#03226A" transform="translate(191,376)"/>
<path d="M0 0 C0 41.25 0 82.5 0 125 C-3.89409353 123.05295323 -6.81755285 120.7595275 -10.0625 117.9375 C-11.22981968 116.93544131 -12.39779826 115.93414971 -13.56640625 114.93359375 C-14.14664551 114.43585449 -14.72688477 113.93811523 -15.32470703 113.42529297 C-17.6879124 111.41474314 -20.09143529 109.45585357 -22.5 107.5 C-27.1045358 103.75212202 -31.64019191 99.93016556 -36.1640625 96.0859375 C-39.5805954 93.18755177 -43.02504838 90.328449 -46.5 87.5 C-51.1045358 83.75212202 -55.64019191 79.93016556 -60.1640625 76.0859375 C-64.45455609 72.44613488 -68.80137976 68.88028439 -73.16796875 65.33203125 C-75.25029205 63.61734572 -77.31305827 61.88898143 -79.36328125 60.13671875 C-79.93691406 59.646875 -80.51054688 59.15703125 -81.1015625 58.65234375 C-82.20689376 57.7059985 -83.30992927 56.7569622 -84.41015625 55.8046875 C-87.79699443 52.90534875 -91.25609245 50.4008017 -95 48 C-93.66152325 44.89070483 -92.37917792 43.23746026 -89.61328125 41.30078125 C-88.58871826 40.57737549 -88.58871826 40.57737549 -87.54345703 39.83935547 C-86.80724121 39.33549316 -86.07102539 38.83163086 -85.3125 38.3125 C-84.5479248 37.78285645 -83.78334961 37.25321289 -82.99560547 36.70751953 C-75.84748016 31.80548286 -68.55195715 27.25051476 -61 23 C-60.29713867 22.60071289 -59.59427734 22.20142578 -58.87011719 21.79003906 C-41.95328295 12.26456009 -19.78229104 0 0 0 Z " fill="#03226A" transform="translate(191,9)"/>
<path d="M0 0 C4.30302583 0.49769937 6.95138675 3.2464436 10.0625 6 C11.22978336 7.01120839 12.39776246 8.02161416 13.56640625 9.03125 C14.43676514 9.78728516 14.43676514 9.78728516 15.32470703 10.55859375 C17.67973333 12.58483614 20.0866487 14.54380335 22.5 16.5 C27.1045358 20.24787798 31.64019191 24.06983444 36.1640625 27.9140625 C40.46509753 31.56280785 44.82346097 35.13644727 49.19921875 38.6953125 C52.26775787 41.22033075 55.29039812 43.79484769 58.3125 46.375 C62.74851603 50.15792492 67.26600643 53.80532737 71.875 57.375 C77.62027155 61.83051671 83.13095441 66.51143405 88.60058594 71.29980469 C93.06857008 75.2084168 97.61627885 78.99874899 102.23046875 82.734375 C106.05923416 85.86651032 109.82544307 89.07065169 113.58642578 92.28369141 C116.72814837 94.97325797 116.72814837 94.97325797 120.16235352 97.26220703 C122 99 122 99 122.390625 101.91796875 C122.34421875 102.99691406 122.2978125 104.07585937 122.25 105.1875 C122.21390625 106.27417969 122.1778125 107.36085938 122.140625 108.48046875 C122.09421875 109.31191406 122.0478125 110.14335937 122 111 C84.65530987 113.3703345 84.65530987 113.3703345 76.47045898 106.75610352 C74.24276469 104.48225577 72.1942819 102.14736801 70.27636719 99.60644531 C68.43644391 97.29070408 66.23831858 95.6346048 63.875 93.875 C59.45705047 90.39485734 55.16880238 86.78009663 50.88623047 83.13623047 C47.4538968 80.21970392 43.99389336 77.3429205 40.5 74.5 C35.8954642 70.75212202 31.35980809 66.93016556 26.8359375 63.0859375 C23.4194046 60.18755177 19.97495162 57.328449 16.5 54.5 C12.46016797 51.21176463 8.4690947 47.87276868 4.5 44.5 C-0.49084313 40.2592984 -5.53079914 36.08484266 -10.609375 31.94921875 C-13.42438365 29.65397477 -16.21592616 27.33260241 -19 25 C-18.41550029 21.07289258 -16.51847608 18.87443505 -14 15.875 C-13.19691406 14.91722656 -12.39382812 13.95945312 -11.56640625 12.97265625 C-7.77901958 8.58574414 -3.91825582 4.27025044 0 0 Z " fill="#C8122F" transform="translate(69,80)"/>
<path d="M0 0 C1.7804969 0.04522978 3.56110513 0.08627936 5.34179688 0.12304688 C9.66815472 0.22137261 13.98907548 0.37615922 18.3125 0.5625 C19.26611697 10.90751313 19.26611697 10.90751313 17.17724609 14.53271484 C15.54354401 16.13431248 13.87490396 17.43952352 12 18.75 C11.35844971 19.2464502 10.71689941 19.74290039 10.0559082 20.25439453 C8.7594696 21.25547677 7.45180155 22.24220096 6.1328125 23.21337891 C3.67907807 25.03195944 1.34410876 26.98045858 -1 28.9375 C-1.87527344 29.6490625 -2.75054687 30.360625 -3.65234375 31.09375 C-13.22837646 38.88274958 -22.75255266 46.73307421 -32.15576172 54.72998047 C-36.35078182 58.29278404 -40.60664278 61.77575575 -44.875 65.25 C-48.00549666 67.82396392 -51.09922461 70.43819086 -54.1875 73.0625 C-59.03709381 77.18351634 -63.93910806 81.23241354 -68.875 85.25 C-72.00549791 87.82396495 -75.09917862 90.43824336 -78.1875 93.0625 C-83.96272556 97.96853013 -89.79682317 102.79520545 -95.6875 107.5625 C-96.533125 108.32691406 -97.37875 109.09132813 -98.25 109.87890625 C-100.6875 111.5625 -100.6875 111.5625 -102.66796875 111.65625 C-105.69070305 110.0191792 -107.76387227 107.61451773 -110 105.0625 C-110.47985352 104.52367187 -110.95970703 103.98484375 -111.45410156 103.4296875 C-112.87786325 101.81780975 -114.28484975 100.19275776 -115.6875 98.5625 C-116.44933594 97.6859375 -117.21117187 96.809375 -117.99609375 95.90625 C-121.63065848 91.51844549 -121.63065848 91.51844549 -122.6875 89.5625 C-122.05408997 84.82850003 -118.82070371 82.74159885 -115.3125 79.875 C-114.67836182 79.34463135 -114.04422363 78.8142627 -113.39086914 78.26782227 C-111.49797178 76.68909874 -109.59482986 75.12373972 -107.6875 73.5625 C-106.72457031 72.77101563 -105.76164062 71.97953125 -104.76953125 71.1640625 C-103.00402601 69.71932114 -101.2357829 68.27791916 -99.46484375 66.83984375 C-96.34353633 64.28045946 -93.2629997 61.67656209 -90.1875 59.0625 C-85.33438738 54.93838655 -80.42936871 50.88584329 -75.48828125 46.8671875 C-72.41974213 44.34216925 -69.39710188 41.76765231 -66.375 39.1875 C-61.93898397 35.40457508 -57.42149357 31.75717263 -52.8125 28.1875 C-47.13214068 23.78232339 -41.66617428 19.17174891 -36.27587891 14.41650391 C-35.09599197 13.37821676 -33.90291665 12.35477789 -32.69897461 11.34448242 C-30.58679966 9.53134563 -30.58679966 9.53134563 -28.47485352 7.1809082 C-19.83156162 -1.35158302 -11.38239698 -0.50548397 0 0 Z " fill="#C8122F" transform="translate(172.6875,320.4375)"/>
<path d="M0 0 C38.39917635 -2.37031953 38.39917635 -2.37031953 46.59985352 4.24389648 C48.81551907 6.51578278 50.84515549 8.84737049 52.73974609 11.39355469 C54.56532183 13.72061558 56.76097081 15.3676035 59.125 17.125 C63.54294953 20.60514266 67.83119762 24.21990337 72.11376953 27.86376953 C75.5461032 30.78029608 79.00610664 33.6570795 82.5 36.5 C87.1045358 40.24787798 91.64019191 44.06983444 96.1640625 47.9140625 C99.5805954 50.81244823 103.02504838 53.671551 106.5 56.5 C110.53983203 59.78823537 114.5309053 63.12723132 118.5 66.5 C123.49084313 70.7407016 128.53079914 74.91515734 133.609375 79.05078125 C136.42438365 81.34602523 139.21592616 83.66739759 142 86 C139.06852702 91.56043523 135.61024892 96.0656317 131.4375 100.75 C130.86064453 101.40871094 130.28378906 102.06742187 129.68945312 102.74609375 C127.19781155 105.57972534 124.69012184 108.3524038 122 111 C118.57326304 109.47260916 115.94158718 107.45668829 113.0625 105.0625 C112.09441406 104.25941406 111.12632812 103.45632813 110.12890625 102.62890625 C106.3528977 99.4633544 102.59328545 96.27838545 98.83813477 93.08813477 C95.42115068 90.18867644 91.97575444 87.32910245 88.5 84.5 C83.8954642 80.75212202 79.35980809 76.93016556 74.8359375 73.0859375 C71.4194046 70.18755177 67.97495162 67.328449 64.5 64.5 C60.46016457 61.21176186 56.46919573 57.87265239 52.5 54.5 C47.7308879 50.44987401 42.92087568 46.45647887 38.0703125 42.50390625 C27.88165038 34.19483193 17.74037478 25.83311736 7.734375 17.3046875 C5.1001531 14.94056327 5.1001531 14.94056327 2.140625 13.3828125 C-0.99149889 9.89632423 -0.38345209 6.79878271 -0.17578125 2.265625 C-0.11777344 1.51796875 -0.05976563 0.7703125 0 0 Z " fill="#C8122F" transform="translate(321,321)"/>
<path d="M0 0 C9.41204958 3.82094673 16.42639601 15.95096854 22 24 C14.80730602 31.43245044 6.94946564 38.11496012 -1.08203125 44.6171875 C-4.25417407 47.20755848 -7.38043294 49.84682867 -10.5 52.5 C-15.34800649 56.62005836 -20.24846418 60.6679643 -25.18359375 64.68359375 C-28.33785192 67.27787266 -31.4520298 69.91606265 -34.5625 72.5625 C-39.11284316 76.43241802 -43.72832835 80.19959897 -48.41015625 83.91015625 C-52.02605687 86.82796444 -55.55920383 89.83952593 -59.09790039 92.85009766 C-63.50918158 96.5984155 -67.97311026 100.27798454 -72.46484375 103.9296875 C-75.08854342 106.00019446 -75.08854342 106.00019446 -77.58862305 108.59887695 C-81.51442125 111.8537581 -85.19659209 111.64274116 -90.1171875 111.48828125 C-90.97434357 111.48120651 -91.83149963 111.47413177 -92.71463013 111.46684265 C-95.43566471 111.43899213 -98.15459407 111.37627456 -100.875 111.3125 C-102.72653265 111.2874049 -104.57809776 111.26459385 -106.4296875 111.24414062 C-110.95392846 111.18919651 -115.47660809 111.10299162 -120 111 C-121.02932157 101.6595101 -121.02932157 101.6595101 -118.77099609 98.01855469 C-117.00156006 96.29736186 -115.17857704 94.83385142 -113.1875 93.375 C-112.50187988 92.82924316 -111.81625977 92.28348633 -111.10986328 91.72119141 C-109.72944652 90.62582216 -108.33823556 89.54390417 -106.93603516 88.4765625 C-104.35851656 86.51075765 -101.86957638 84.44457448 -99.375 82.375 C-98.50746094 81.67246094 -97.63992188 80.96992188 -96.74609375 80.24609375 C-93.61010527 77.68109606 -90.52244685 75.0634254 -87.4375 72.4375 C-82.88725677 68.56746831 -78.2716668 64.80039718 -73.58984375 61.08984375 C-69.96869031 58.16779685 -66.43045431 55.15178514 -62.88671875 52.13671875 C-59.45428391 49.21995487 -55.99407185 46.34306574 -52.5 43.5 C-48.46016863 40.21176517 -44.46907935 36.87278574 -40.5 33.5 C-35.65179875 29.38016701 -30.75154155 25.33204036 -25.81640625 21.31640625 C-22.66214845 18.72212765 -19.54795657 16.08395327 -16.4375 13.4375 C-11.0432998 8.84950474 -5.56305557 4.38263294 0 0 Z " fill="#C8122F" transform="translate(441,80)"/>
<path d="M0 0 C4.52678638 0.87516648 7.21035079 3.50210216 10.5625 6.5 C11.82203503 7.60387135 13.08246057 8.70672741 14.34375 9.80859375 C14.96507812 10.35370605 15.58640625 10.89881836 16.2265625 11.46044922 C18.63003419 13.54694323 21.08975068 15.55884578 23.5625 17.5625 C27.58358091 20.82778303 31.55345162 24.14557844 35.5 27.5 C39.46903543 30.87283589 43.46017021 34.21176645 47.5 37.5 C51.65214054 40.88502953 55.77603279 44.30092567 59.875 47.75 C60.41060547 48.19794922 60.94621094 48.64589844 61.49804688 49.10742188 C64.85686402 51.9436627 67.87318496 54.87318496 71 58 C40.64 58 10.28 58 -21 58 C-19.68770273 49.47006773 -18.53324926 42.47307657 -15.5625 34.625 C-15.22412109 33.70960449 -14.88574219 32.79420898 -14.53710938 31.85107422 C-10.38270377 20.92261777 -5.23264221 10.44502529 0 0 Z " fill="#04236A" transform="translate(30,133)"/>
<path d="M0 0 C30.03 0 60.06 0 91 0 C85.36734694 5.63265306 85.36734694 5.63265306 82.6171875 8.015625 C82.01310059 8.53979004 81.40901367 9.06395508 80.78662109 9.60400391 C80.15578613 10.14718262 79.52495117 10.69036133 78.875 11.25 C78.21193848 11.82282715 77.54887695 12.3956543 76.86572266 12.98583984 C72.21874212 16.98644009 67.50690375 20.89796818 62.7421875 24.7578125 C59.62999852 27.30253683 56.56273503 29.89618225 53.5 32.5 C48.66461946 36.60915149 43.77716737 40.64664812 38.85546875 44.65234375 C33.51869123 49.04003634 28.26261359 53.52385012 23 58 C14.72617764 48.08702415 10.3924702 33.88000911 6.0625 21.9375 C5.68528809 20.90407471 5.30807617 19.87064941 4.91943359 18.8059082 C2.6707622 12.45174678 1.35311412 6.7655706 0 0 Z " fill="#03236A" transform="translate(8,321)"/>
<path d="M0 0 C3 1 3 1 4.11572266 2.64453125 C4.4616748 3.35996094 4.80762695 4.07539063 5.1640625 4.8125 C5.55980469 5.62871826 5.95554687 6.44493652 6.36328125 7.28588867 C6.77964844 8.18154541 7.19601562 9.07720215 7.625 10 C8.05941406 10.92466064 8.49382812 11.84932129 8.94140625 12.80200195 C12.3086447 20.13855572 15.24858989 27.60038149 18 35.1875 C18.37334473 36.21294922 18.74668945 37.23839844 19.13134766 38.29492188 C21.35639768 44.61106019 22.65570081 50.27850407 24 57 C-6.03 57 -36.06 57 -67 57 C-61.36961451 51.36961451 -61.36961451 51.36961451 -58.8359375 49.203125 C-58.27704834 48.72415771 -57.71815918 48.24519043 -57.14233398 47.75170898 C-56.55911377 47.25614502 -55.97589355 46.76058105 -55.375 46.25 C-54.75890869 45.72414307 -54.14281738 45.19828613 -53.50805664 44.65649414 C-48.9796677 40.8030572 -44.39319301 37.02560313 -39.77734375 33.27734375 C-36.65603633 30.71795946 -33.5754997 28.11406209 -30.5 25.5 C-25.66282091 21.38942666 -20.77955337 17.34375641 -15.84375 13.3515625 C-13.70615588 11.58393659 -11.61186691 9.79348085 -9.53125 7.9609375 C-8.94408203 7.44853516 -8.35691406 6.93613281 -7.75195312 6.40820312 C-6.60257207 5.40233453 -5.46033509 4.38823107 -4.32617188 3.36523438 C-2.75 1.9921875 -2.75 1.9921875 0 0 Z " fill="#03236A" transform="translate(480,134)"/>
<path d="M0 0 C29.04 0 58.08 0 88 0 C87.27574704 7.24252959 86.42896013 12.75264644 84 19.375 C83.54512207 20.64561279 83.54512207 20.64561279 83.08105469 21.94189453 C78.80869876 33.60177646 73.6227095 44.93251484 68 56 C63.85584795 54.29957397 60.75620163 51.3584817 57.4375 48.4375 C56.17793997 47.34276361 54.91751466 46.24902202 53.65625 45.15625 C53.03492188 44.61742187 52.41359375 44.07859375 51.7734375 43.5234375 C49.36225841 41.4521603 46.90532091 39.44078991 44.4375 37.4375 C40.41641584 34.17221433 36.44663557 30.8543221 32.5 27.5 C25.74797217 21.76489767 18.89857437 16.15453273 12.01171875 10.58203125 C11.03847656 9.79183594 10.06523437 9.00164062 9.0625 8.1875 C8.18722656 7.47980469 7.31195313 6.77210938 6.41015625 6.04296875 C4.17012168 4.14420363 2.07642287 2.07642287 0 0 Z " fill="#04236A" transform="translate(415,321)"/>
</svg>
